<svg width="452" height="725" viewBox="0 0 452 725" fill="none" xmlns="http://www.w3.org/2000/svg">
<path d="M21.7578 213.947L21.8379 214.162L22.0527 214.242L33.5586 218.5L22.0527 222.758L21.8379 222.838L21.7578 223.053L17.5 234.559L13.2422 223.053L13.1621 222.838L12.9473 222.758L1.44043 218.5L12.9473 214.242L13.1621 214.162L13.2422 213.947L17.5 202.44L21.7578 213.947Z" fill="#BCEC30" stroke="#202027"/>
<path d="M66.8672 175.838L66.9473 176.053L67.1621 176.133L73.5586 178.5L67.1621 180.867L66.9473 180.947L66.8672 181.162L64.5 187.559L62.1328 181.162L62.0527 180.947L61.8379 180.867L55.4404 178.5L61.8379 176.133L62.0527 176.053L62.1328 175.838L64.5 169.44L66.8672 175.838Z" stroke="#202027"/>
<path d="M245.962 667.743L246.042 667.958L246.257 668.038L251.559 670L246.257 671.962L246.042 672.042L245.962 672.257L244 677.559L242.038 672.257L241.958 672.042L241.743 671.962L236.44 670L241.743 668.038L241.958 667.958L242.038 667.743L244 662.44L245.962 667.743Z" fill="#BCEC30" stroke="#202027"/>
<path d="M290.295 699.129L290.371 699.346L290.586 699.429L303.62 704.5L290.586 709.571L290.371 709.654L290.295 709.871L285.5 723.493L280.705 709.871L280.629 709.654L280.414 709.571L267.379 704.5L280.414 699.429L280.629 699.346L280.705 699.129L285.5 685.506L290.295 699.129Z" stroke="#202027"/>
<path d="M341.226 114.108C344.072 114.89 423.284 147.926 423.284 147.926L339.242 156.825L392.335 224.072L317.485 178.137L309.858 255.995L288.761 174.003L218.442 213.004L266.882 155.759L180.917 151.894L261.719 127.992L201.678 59.7755L286.09 98.9496L305.408 23.3638L314.083 99.1118L390.973 46.8639L341.226 114.108Z" fill="#BCEC30" stroke="#202027" stroke-miterlimit="10" stroke-linecap="round"/>
</svg>
